# xmcd
#
# Track frame offsets:
#	150
#	8986
#	19204
#	30347
#	40584
#	53293
#	63819
#	75864
#	86642
#	96240
#	106922
#	116123
#	126730
#	136177
#
# Disc length: 1960 seconds
#
# Revision: 1
# Processed by: cddbd v1.5.1PL0 Copyright (c) Steve Scherf et al.
# Submitted via: audiograbber 1.83.01
#
DISCID=a307a60e
DTITLE=Faron Young - Wanted
DYEAR=1900
DGENRE=Country
TTITLE0=Alone with you
TTITLE1=Hello walls
TTITLE2=Country girl
TTITLE3=Live fast, love hard, die young
TTITLE4=It's four in the morning
TTITLE5=If you ain't lovin'
TTITLE6=Sweet dreams
TTITLE7=I miss you already
TTITLE8=Goin' steady
TTITLE9=Three days
TTITLE10=Backtrack
TTITLE11=Riverboat
TTITLE12=I've got five dollars
TTITLE13=Wind me up
EXTD=
EXTT0=
EXTT1=
EXTT2=
EXTT3=
EXTT4=
EXTT5=
EXTT6=
EXTT7=
EXTT8=
EXTT9=
EXTT10=
EXTT11=
EXTT12=
EXTT13=
PLAYORDER=
